<?xml version="1.0" encoding="UTF-8"?>
<svg width="50px" height="51px" viewBox="0 0 50 51" version="1.1" xmlns="http://www.w3.org/2000/svg" xmlns:xlink="http://www.w3.org/1999/xlink">
  <title>Group 6</title>
  <defs>
    <polygon id="path-1" points="0 0.859166667 49.1409722 0.859166667 49.1409722 49.9994444 0 49.9994444"></polygon>
  </defs>
  <g id="Page-1" stroke="none" stroke-width="1" fill="none" fill-rule="evenodd">
    <g id="Desktop-HD" transform="translate(-371.000000, -6668.000000)">
      <g id="channel" transform="translate(0.000000, 6431.000000)">
        <rect id="Rectangle" fill="#4DCCDD" fill-rule="nonzero" x="0" y="0" width="1440" height="559"></rect>
        <g id="Group-6" transform="translate(371.000000, 237.000000)">
          <g id="Group-3" transform="translate(0.000000, 0.530000)">
            <mask id="mask-2" fill="white">
              <use xlink:href="#path-1"></use>
            </mask>
            <g id="Clip-2"></g>
            <path d="M49.1409722,25.43 C49.1409722,38.9994444 38.1395833,49.9994444 24.5715278,49.9994444 C11.0006944,49.9994444 -0.000694444444,38.9994444 -0.000694444444,25.43 C-0.000694444444,11.8591667 11.0006944,0.859166667 24.5715278,0.859166667 C38.1395833,0.859166667 49.1409722,11.8591667 49.1409722,25.43" id="Fill-1" fill="#000000" mask="url(#mask-2)"></path>
          </g>
          <path d="M37.33,23.1279167 C37.0772222,23.1529167 36.8258333,23.1654167 36.5730556,23.1654167 C33.8036111,23.1668056 31.2216667,21.7695833 29.7036111,19.4529167 L29.7036111,32.0959722 C29.7036111,37.2570833 25.5202778,41.4418056 20.3591667,41.4418056 C15.1980556,41.4418056 11.0147222,37.2570833 11.0147222,32.0959722 C11.0147222,26.9348611 15.1980556,22.7515278 20.3591667,22.7515278 C20.555,22.7515278 20.7452778,22.7695833 20.9369444,22.7820833 L20.9369444,27.38625 C20.7452778,27.3640278 20.5563889,27.3279167 20.3591667,27.3279167 C17.7258333,27.3279167 15.5911111,29.4640278 15.5911111,32.0973611 C15.5911111,34.7306944 17.7258333,36.8668056 20.3591667,36.8668056 C22.9938889,36.8668056 25.3202778,34.7904167 25.3202778,32.1570833 L25.3661111,10.6848611 L29.7716667,10.6848611 C30.1869444,14.63625 33.3716667,17.7195833 37.3341667,18.0098611 L37.3341667,23.1279167" id="Fill-4" fill="#FFFFFF"></path>
        </g>
      </g>
    </g>
  </g>
</svg>
