<?xml version="1.0" encoding="UTF-8"?>
<svg width="50px" height="52px" viewBox="0 0 50 52" version="1.1" xmlns="http://www.w3.org/2000/svg" xmlns:xlink="http://www.w3.org/1999/xlink">
  <title>Group 10</title>
  <defs>
    <polygon id="path-1" points="0 0.858472222 49.1409722 0.858472222 49.1409722 50 0 50"></polygon>
  </defs>
  <g id="Page-1" stroke="none" stroke-width="1" fill="none" fill-rule="evenodd">
    <g id="Desktop-HD" transform="translate(-807.000000, -6664.000000)">
      <g id="channel" transform="translate(0.000000, 6431.000000)">
        <rect id="Rectangle" fill="#4DCCDD" fill-rule="nonzero" x="0" y="0" width="1440" height="559"></rect>
        <g id="Group-10" transform="translate(807.000000, 233.000000)">
          <g id="Group-3" transform="translate(0.000000, 0.530000)">
            <mask id="mask-2" fill="white">
              <use xlink:href="#path-1"></use>
            </mask>
            <g id="Clip-2"></g>
            <path d="M49.1409722,25.4293056 C49.1409722,39.0001389 38.1395833,50.0001389 24.5715278,50.0001389 C11.0006944,50.0001389 -0.000694444444,39.0001389 -0.000694444444,25.4293056 C-0.000694444444,11.8584722 11.0006944,0.858472222 24.5715278,0.858472222 C38.1395833,0.858472222 49.1409722,11.8584722 49.1409722,25.4293056" id="Fill-1" fill="#000000" mask="url(#mask-2)"></path>
          </g>
          <path d="M32.1976389,16.6643056 C31.2643056,16.6643056 30.50875,17.4198611 30.50875,18.3531944 C30.50875,19.2865278 31.2643056,20.0420833 32.1976389,20.0420833 C33.1309722,20.0420833 33.8865278,19.2865278 33.8865278,18.3531944 C33.8865278,17.4198611 33.1309722,16.6643056 32.1976389,16.6643056" id="Fill-4" fill="#FFFFFF"></path>
          <path d="M24.6890278,30.4698611 C22.1820833,30.4698611 20.1445833,28.4309722 20.1445833,25.9254167 C20.1445833,23.4184722 22.1820833,21.3809722 24.6890278,21.3809722 C27.1945833,21.3809722 29.2320833,23.4184722 29.2320833,25.9254167 C29.2320833,28.4309722 27.1945833,30.4698611 24.6890278,30.4698611 M24.6890278,18.8309722 C20.7779167,18.8309722 17.5945833,22.0129167 17.5945833,25.9254167 C17.5945833,29.8365278 20.7779167,33.0198611 24.6890278,33.0198611 C28.6001389,33.0198611 31.7834722,29.8365278 31.7834722,25.9254167 C31.7834722,22.0129167 28.6001389,18.8309722 24.6890278,18.8309722" id="Fill-6" fill="#FFFFFF"></path>
          <path d="M18.81875,14.2311111 C15.5423611,14.2311111 12.8770833,16.8963889 12.8770833,20.1741667 L12.8770833,31.6769444 C12.8770833,34.9533333 15.5423611,37.6186111 18.81875,37.6186111 L30.3215278,37.6186111 C33.5993056,37.6186111 36.2645833,34.9533333 36.2645833,31.6769444 L36.2645833,20.1741667 C36.2645833,16.8963889 33.5993056,14.2311111 30.3215278,14.2311111 L18.81875,14.2311111 Z M30.3215278,40.3297222 L18.81875,40.3297222 C14.0465278,40.3297222 10.1659722,36.4477778 10.1659722,31.6769444 L10.1659722,20.1741667 C10.1659722,15.4019444 14.0465278,11.52 18.81875,11.52 L30.3215278,11.52 C35.0923611,11.52 38.9756944,15.4019444 38.9756944,20.1741667 L38.9756944,31.6769444 C38.9756944,36.4477778 35.0923611,40.3297222 30.3215278,40.3297222 L30.3215278,40.3297222 Z" id="Fill-8" fill="#FFFFFF"></path>
        </g>
      </g>
    </g>
  </g>
</svg>
