<svg id="Layer_1" data-name="Layer 1" xmlns="http://www.w3.org/2000/svg" viewBox="0 0 972.8 972.8">
  <path d="M494.59,554.5c-5.12-.52-7.68-1-10.75-1C456.7,553,456.7,553,469,528.38c1.54-3.07,3.07-6.65,4.61-9.72,11.26-23.56,23-47.11,36.35-73.73-25.09,1.53-46.08,2.56-69.12,4.09,9.73-26.11,25.6-53.76,39.43-81.4H423.42C407,401.41,389.12,435.2,373.76,469.5c-9.73,21.51-1.54,32.26,21.5,33.8h27.65c-3.58,8.7-6.14,14.33-8.7,20-7.68,16.9-15.87,33.28-22.53,50.18-5.63,13.31,0,24.58,14.34,26.11,20,2.05,40.44,1.54,60.41,1.54,2.05,0,5.63-2.56,6.66-4.61C480.26,583.17,486.91,569.34,494.59,554.5Z" transform="translate(-25.6 -25.6)" style="fill:none"/>
  <path d="M350.72,678.4c30.21,0,56.83.51,83.46,0,3.07,0,8.19-2.56,9.72-5.63,8.71-15.87,16.9-32.26,27.14-52.23H379.9C371.71,636.93,362,655.36,350.72,678.4Z" transform="translate(-25.6 -25.6)" style="fill:none"/>
  <path d="M335.36,446.46H279c-.51,106,14.34,177.16,41.47,201.22h0c11.78-34.3,28.67-70.66,28.67-70.66S331.26,502.27,335.36,446.46Z" transform="translate(-25.6 -25.6)" style="fill:none"/>
  <path d="M181.25,367.1V631.3H143.36l36.35,47.61H214s24.06,0,23.55-35.33c.51-86.52,1-190,.51-276.48Z" transform="translate(-25.6 -25.6)" style="fill:none"/>
  <path d="M80.38,446.46c5.12,75.78-16.89,141.83-16.89,144.39,11.26,19.45,22,38.91,34.3,59.9,45.06-63,43-203.77,42.5-204.29Z" transform="translate(-25.6 -25.6)" style="fill:none"/>
  <path d="M877.57,495.62c0-13.32-.51-52.74-.51-65,0-41-42-39.93-42-39.93H789.5L789,367.1H732.16v23.56H694.78v54.78h36.87v49.15h-55.3V553h56.83V677.89H789.5V552.45c28.16,0,53.76-.51,78.85,0,12.8,0,19.46,8.19,20,20.48.51,14.33,0,57.34,0,57.34H831.49l22,47.11h52.74s40.45,1.53,40.45-39.94h0l-.51-98.82C946.18,505.34,925.7,495.62,877.57,495.62Zm-48.64-1H791V445.44h37.89Z" transform="translate(-25.6 -25.6)" style="fill:none"/>
  <path d="M617.47,624.64V444.93h35.84v-55.3H521.73v55.81h36.35V624.13H499.71s-17.92,35.33-27.65,54.78H676.35l.51-54.27Z" transform="translate(-25.6 -25.6)" style="fill:none"/>
  <path d="M944.13,393.73c-13.31-12.8-27.14-8.71-37.38-2.05a30,30,0,0,0-14.33,26.11V447h30.2c26.63,0,41-31.75,23-51.72Z" transform="translate(-25.6 -25.6)" style="fill:none"/>
  <path d="M972.29,79.36A132.88,132.88,0,0,0,866.82,25.6H157.18A130.93,130.93,0,0,0,78.85,51.71,128.77,128.77,0,0,0,51.2,79.36a131.24,131.24,0,0,0-25.6,77.82V866.82a128.29,128.29,0,0,0,26.11,77.82,128.77,128.77,0,0,0,27.65,27.65,129.44,129.44,0,0,0,77.82,26.11H866.82A132.88,132.88,0,0,0,998.4,866.82V157.18C998.4,128,988.16,100.86,972.29,79.36ZM97.79,650.75c-12.29-21-23-40.45-34.3-59.9,0-2.56,22-68.61,16.89-144.39h59.91C140.8,447,142.85,587.78,97.79,650.75Zm139.78-7.17c.51,35.33-23.55,35.33-23.55,35.33H179.71L143.36,631.3h37.89V367.1h56.83C238.59,453.63,238.08,557.06,237.57,643.58Zm82.94,4.1h0c-27.13-24.06-42-95.23-41.47-201.22h56.32C331.26,502.27,349.18,577,349.18,577S332.29,613.38,320.51,647.68ZM443.9,672.77c-1.53,3.07-6.65,5.63-9.72,5.63-26.63.51-53.25,0-83.46,0,11.26-23,21-41.47,29.18-57.86H471C460.8,640.51,452.61,656.9,443.9,672.77Zm22.53-71.68c-20,0-40.45.51-60.41-1.54-14.34-1.53-20-12.8-14.34-26.11,6.66-16.9,14.85-33.28,22.53-50.18,2.56-5.63,5.12-11.26,8.7-20H395.26c-23-1.54-31.23-12.29-21.5-33.8,15.36-34.3,33.28-68.09,49.66-101.88h56.84c-13.83,27.64-29.7,55.29-39.43,81.4,23-1.53,44-2.56,69.12-4.09-13.31,26.62-25.09,50.17-36.35,73.73-1.54,3.07-3.07,6.65-4.61,9.72C456.7,553,456.7,553,483.84,553.47c3.07,0,5.63.51,10.75,1-7.68,14.84-14.33,28.67-21.5,42C472.06,598.53,468.48,601.09,466.43,601.09Zm209.92,77.82H472.06c9.73-19.45,27.65-54.78,27.65-54.78h58.37V445.44H521.73V389.63H653.31v55.3H617.47V624.64h59.39l-.51,54.27Zm270.34-41.47c0,41.47-40.45,39.94-40.45,39.94H853.5l-22-47.11h56.83s.51-43,0-57.34c-.51-12.29-7.17-20.48-20-20.48-25.09-.51-50.69,0-78.85,0V677.89H733.18V553H676.35V494.59h55.3V445.44H694.78V390.66h37.38V367.1H789l.51,23.56h45.57s42-1,42,39.93c0,12.29.51,51.71.51,65,48.13,0,68.61,9.72,68.61,43l.51,98.82ZM922.62,447h-30.2V417.79a30,30,0,0,1,14.33-26.11c10.24-6.66,24.07-10.75,37.38,2.05l1.53,1.53C963.58,415.23,949.25,447,922.62,447Z" transform="translate(-25.6 -25.6)"/>
  <rect x="765.44" y="419.84" width="37.89" height="49.15"/>
</svg>
