<?xml version="1.0" encoding="UTF-8"?>
<svg width="50px" height="52px" viewBox="0 0 50 52" version="1.1" xmlns="http://www.w3.org/2000/svg" xmlns:xlink="http://www.w3.org/1999/xlink">
  <title>Group 6</title>
  <defs>
    <polygon id="path-1" points="0 0.859722222 49.1409722 0.859722222 49.1409722 50 0 50"></polygon>
  </defs>
  <g id="Page-1" stroke="none" stroke-width="1" fill="none" fill-rule="evenodd">
    <g id="Desktop-HD" transform="translate(-807.000000, -6780.000000)">
      <g id="channel" transform="translate(0.000000, 6431.000000)">
        <rect id="Rectangle" fill="#4DCCDD" fill-rule="nonzero" x="0" y="0" width="1440" height="559"></rect>
        <g id="Group-6" transform="translate(807.000000, 349.000000)">
          <g id="Group-3" transform="translate(0.000000, 0.530000)">
            <mask id="mask-2" fill="white">
              <use xlink:href="#path-1"></use>
            </mask>
            <g id="Clip-2"></g>
            <path d="M49.1409722,25.4291667 C49.1409722,39 38.1395833,50 24.5715278,50 C11.0006944,50 -0.000694444444,39 -0.000694444444,25.4291667 C-0.000694444444,11.8583333 11.0006944,0.859722222 24.5715278,0.859722222 C38.1395833,0.859722222 49.1409722,11.8583333 49.1409722,25.4291667" id="Fill-1" fill="#000000" mask="url(#mask-2)"></path>
          </g>
          <path d="M28.8529167,26.4854167 L22.0876389,29.8326389 C21.8223611,29.9770833 20.9209722,29.7840278 20.9209722,29.4826389 L20.9209722,22.6118056 C20.9209722,22.30625 21.8293056,22.1159722 22.0945833,22.2659722 L28.5709722,25.7895833 C28.8418056,25.94375 29.1265278,26.3368056 28.8529167,26.4854167 L28.8529167,26.4854167 Z M37.7251389,22.4493056 C37.7251389,19.1909722 35.0834722,16.5493056 31.8251389,16.5493056 L16.7376389,16.5493056 C13.4793056,16.5493056 10.8376389,19.1909722 10.8376389,22.4493056 L10.8376389,29.46875 C10.8376389,32.7284722 13.4793056,35.36875 16.7376389,35.36875 L31.8251389,35.36875 C35.0834722,35.36875 37.7251389,32.7284722 37.7251389,29.46875 L37.7251389,22.4493056 Z" id="Fill-4" fill="#FFFFFF"></path>
        </g>
      </g>
    </g>
  </g>
</svg>
