<?xml version="1.0" encoding="utf-8"?>
<!-- Generator: Adobe Illustrator 25.0.1, SVG Export Plug-In . SVG Version: 6.00 Build 0)  -->
<svg version="1.1" id="Layer_1" xmlns="http://www.w3.org/2000/svg" xmlns:xlink="http://www.w3.org/1999/xlink" x="0px" y="0px"
	 viewBox="0 0 750 280" style="enable-background:new 0 0 750 280;" xml:space="preserve">
<g>
	<g>
		<path d="M316.4,115.8c0.6-2.1,2.4-1.5,3.7-1.5c25.5,0.3,51-0.9,76.4,0.7c19.4,1.3,37.5,5.9,51.7,20.5c6.4,6.6,11.2,14.1,13.6,23
			c3.6,13.4,4,27.1,0.7,40.6c-4.9,19.9-19.3,30.5-38,35.9c-10.8,3.1-22,3.6-33.2,3.6c-23.2,0.1-46.3,0.1-69.5,0
			c-1.6,0-3.6,0.7-5.2-1.6c3.7-1.7,7.3-1.4,10.8-1.7c5.3-0.5,8.3-3.1,8.8-8.4c0.3-3.3,0.6-6.6,0.6-10c0.1-27,0-54,0-81
			c0-0.3,0-0.7,0-1c-0.2-15.5-1.6-17-17-18C318.7,116.9,317.2,117.5,316.4,115.8z M379,118.2c-0.2,0.6-0.5,0.9-0.5,1.2
			c-0.1,37.7-0.1,75.3-0.2,113c0,2.4,1.2,3.2,3.2,3.6c14,3,25.8-3.2,30.6-16.7c9.6-26.9,9-54,0.1-80.9
			C406.8,121.6,397.2,116.3,379,118.2z"/>
		<path d="M696.4,117.6c-19.2-2.2-35.2,1.6-47.5,16.9c-8.4,10.6-16.8,21.1-23.3,33c-0.8,1.5-1.1,3.7-4.2,3.3c0-18.6,0-37.2,0-56.2
			c41.7,0,83.4,0,126.8,0c-28.5,40.4-56.3,80-84.6,120.2c18,0.6,35.2,2.2,48.1-13.5c10-12.1,19.6-24.4,27-38.3
			c0.8-1.5,1-3.7,4.1-3.7c0,19.5,0,39,0,58.9c-43,0-86.2,0-130.9,0C640.4,197.7,668.3,157.9,696.4,117.6z"/>
		<path d="M113.9,131.6c-5.4-29.2-10.6-57.7-16-87.3c6.4,3.4,11.8,6.3,17.2,9.1c2.1,1.1,4.1,2.2,6.2,3.1c6.1,2.7,9.6,1.5,12.7-4.3
			c8.4-15.8,16.8-31.7,25.1-47.6c0.5-1,0.6-2.3,2.7-2.4c3.7,7.3,7.5,14.8,11.4,22.2c5,9.4,10,18.7,15.1,28.1
			c3.1,5.6,6.6,6.9,12.4,4.1c7.6-3.7,15-7.7,23.6-12.2c-5.3,28.7-10.4,56.5-15.6,85C176.8,111.8,145.3,112.3,113.9,131.6z"/>
		<path d="M160.6,255.4c-26.3,2.6-52.4-23-51.8-52.6c0.5-22.9,20.8-52.7,55.8-50.7c24.3,1.4,49.1,23.5,48.3,53.6
			C212.2,231.7,188.6,257.8,160.6,255.4z M152.4,204.4c-0.1-5.9-5-10.9-10.8-11c-5.8-0.1-11.2,5.3-11.2,11.2c0,5.5,5.4,11,10.9,11.1
			C147,215.8,152.5,210.3,152.4,204.4z M183.3,194c-5.9-0.1-11.4,5.1-11.4,10.9c-0.1,5.5,5.1,10.9,10.8,11.1
			c5.9,0.2,11.3-5,11.4-10.9C194.1,199.5,188.9,194.1,183.3,194z"/>
		<path d="M52.8,162.4c4.9-3.1,9.7-6.3,15.1-9.7c4.4,6.6,8.7,13.1,13.1,19.6c0.9,1.4,0.2,2.6-0.2,3.8c-12.4,37.2,2.2,76.7,31.4,97.4
			c0.6,0.4,1.5,0.8,1.2,2.1c-12.2,1.6-24.4,3.1-37.1,4.8c-0.3-5.4,1.6-10,3.4-14.1c4.5-10.6,2.3-17.9-7.2-24.7
			c-10.4-7.5-19.9-16.1-29.3-24.9c-13.2-12.2-26.6-24.1-41-36c6.1-1.2,10.9-4.4,16.1-6.7c4.3-1.9,5.6-4.7,4.4-9.2
			c-4.3-16-8.4-32.1-12.6-48.2c-0.3-1.3-0.5-2.6-0.8-4.1c4.1-1.4,7.6,0.7,11.2,1.4c9.4,1.9,18.8,4.3,28.1,6.5
			c8.5,2.1,11.2,0.5,13.5-7.8c0.3-1.1,0.5-2.3,0.9-3.4c1.2-3.8,2.4-7.5,4-12.3c6.4,7.7,13.5,13.6,19.5,20.9
			c5.9,7.2,11.8,14.2,17,22.5c-1.7,1.9-3.9,4-5.6,6.4c-1.6,2.1-3.1,2.3-5.5,1.2c-8.3-3.8-16.7-7.4-25.5-11.2
			c-5,8.6-9.9,16.8-14.7,25.1C52.3,161.9,52.6,162.1,52.8,162.4z"/>
		<path d="M255.5,152.7c5.5,3.5,10.4,6.6,15.4,9.8c0.2-0.2,0.4-0.5,0.6-0.7c-4.8-8.3-9.6-16.5-14.7-25.2c-7.8,3.4-15.3,6.5-22.6,10
			c-3.1,1.5-5,1.4-7.2-1.4c-1.8-2.3-4.5-4-6.5-5.6c5.9-12.7,26.3-33.7,35.2-42c1.5,4.9,3.2,9.5,4.5,14.2c2.4,9.4,4.9,10.9,14.2,8.6
			c11.6-2.8,23.3-5.4,34.9-8.1c1.1-0.3,2.3-0.5,3.9,0.5c-1.9,7.3-3.9,14.7-5.8,22.2c-2.6,10.1-5.1,20.3-7.8,30.4
			c-1.1,4.1,0.4,6.8,4.1,8.4c5.4,2.4,10.2,6,16.7,6.6c-9.7,8.3-19.6,15.8-28.3,24.3c-15.2,14.8-31.9,27.8-47.7,41.7
			c-4.1,3.6-5.3,7.7-3.6,13c2.1,6.6,3.9,13.3,6.1,21.1c-12.2-1.6-23.4-3-34.7-4.5c0.2-2.2,1.9-2.6,3-3.4
			c30.1-23.1,41.9-61.6,29.6-97.5c-1.1-3.3-0.8-5.6,1.1-8.2C249.2,162.3,252.1,157.7,255.5,152.7z"/>
		<path d="M475.4,236.5c3.7-0.4,7.4-0.7,11.1-1.2c7.6-1,10.1-3.6,10.4-11.4c0.2-6,0.3-12,0.3-18c0-24.7,0-49.3-0.2-74
			c-0.1-12.2-2.1-14-14.3-14.8c-1.8-0.1-4,0.6-6.2-2.1c28.3,0,55.7,0,83.5,0c-1,2.8-3,1.8-4.4,2c-2.8,0.3-5.6,0.5-8.5,0.7
			c-4.8,0.3-7.2,3.1-7.7,7.7c-0.4,3.5-0.6,7-0.6,10.5c0,31.8,0,63.7,0,95.5c0,1.1,0.1,2.2,0.2,3.4c14.3,1.5,26.9-0.6,37.2-11.6
			c11.4-12,19.7-25.9,27.1-40.6c0.9-1.8,1-4.4,4.5-4.9c0,20.2,0,40.3,0,60.4c-44.1,0-88.2,0-132.3,0
			C475.5,237.6,475.5,237,475.4,236.5z"/>
	</g>
</g>
</svg>
