<?xml version="1.0" standalone="no"?>
<!DOCTYPE svg PUBLIC "-//W3C//DTD SVG 20010904//EN"
 "http://www.w3.org/TR/2001/REC-SVG-20010904/DTD/svg10.dtd">
<svg version="1.0" xmlns="http://www.w3.org/2000/svg"
 width="700.000000pt" height="700.000000pt" viewBox="0 0 700.000000 700.000000"
 preserveAspectRatio="xMidYMid meet">
<metadata>
Created by potrace 1.11, written by Peter Selinger 2001-2013
</metadata>
<g transform="translate(0.000000,700.000000) scale(0.100000,-0.100000)"
fill="#000000" stroke="none">
<path d="M3250 6993 c-637 -47 -1230 -259 -1770 -633 -161 -111 -301 -230
-460 -389 -276 -276 -481 -564 -655 -916 -183 -370 -284 -697 -340 -1105 -22
-160 -31 -563 -16 -742 117 -1385 1044 -2571 2361 -3023 218 -74 437 -125 690
-160 161 -22 554 -31 731 -16 662 57 1279 292 1812 692 720 540 1206 1340
1352 2223 34 210 45 349 45 584 0 934 -361 1804 -1025 2468 -579 579 -1299
922 -2120 1009 -126 13 -473 18 -605 8z m893 -2624 c345 -250 625 -458 623
-464 -2 -5 -111 -342 -242 -747 l-239 -738 -785 0 -785 0 -239 738 c-131 405
-241 742 -243 748 -2 6 63 58 144 117 82 58 364 264 628 456 264 193 487 349
496 347 8 -2 298 -207 642 -457z"/>
</g>
</svg>
